<?xml version="1.0" standalone="no"?>
<!DOCTYPE svg PUBLIC "-//W3C//DTD SVG 20010904//EN"
 "http://www.w3.org/TR/2001/REC-SVG-20010904/DTD/svg10.dtd">
<svg version="1.0" xmlns="http://www.w3.org/2000/svg"
 width="271.000000pt" height="226.000000pt" viewBox="0 0 271.000000 226.000000"
 preserveAspectRatio="xMidYMid meet">

<g transform="translate(0.000000,226.000000) scale(0.100000,-0.100000)"
fill="#000000" stroke="none">
<path d="M1270 1945 c0 -265 -2 -315 -14 -315 -28 0 -66 -59 -66 -102 0 -32 7
-47 35 -75 19 -19 35 -41 35 -49 0 -9 12 -14 35 -14 28 0 35 4 35 19 0 10 11
26 25 35 13 9 29 33 36 54 15 52 -8 109 -51 125 l-30 11 0 313 c0 306 0 313
-20 313 -20 0 -20 -7 -20 -315z m50 -385 c11 -11 20 -26 20 -34 0 -14 -36 -46
-52 -46 -11 0 -48 38 -48 50 0 6 9 19 20 30 11 11 25 20 30 20 6 0 19 -9 30
-20z"/>
<path d="M853 1885 c-144 -65 -302 -201 -388 -333 -171 -266 -180 -608 -22
-855 19 -30 62 -83 95 -119 l61 -64 -11 -45 c-24 -107 8 -282 69 -373 l27 -41
8 52 c12 83 57 183 103 228 45 46 165 101 239 111 25 4 43 10 40 15 -3 5 -51
23 -107 40 -221 67 -292 106 -331 180 l-17 34 4 -50 c5 -62 42 -147 88 -200
l34 -40 -30 19 c-91 56 -136 134 -143 246 -7 132 41 234 208 435 149 179 223
308 259 453 21 83 37 222 26 222 -4 0 -35 -16 -69 -35 -35 -19 -67 -35 -71
-35 -4 0 -5 41 -2 90 8 103 9 101 -70 65z m-53 -204 c5 -11 10 -24 10 -30 0
-17 -46 -42 -64 -35 -22 8 -31 50 -16 69 18 21 57 19 70 -4z m-184 -203 c39
-55 116 -98 183 -101 67 -3 40 -17 -33 -17 -123 0 -217 91 -215 209 l0 36 17
-42 c9 -23 31 -61 48 -85z"/>
<path d="M333 1530 c-33 -17 -91 -58 -127 -92 -54 -49 -66 -65 -61 -82 3 -12
19 -73 35 -136 29 -117 52 -180 86 -236 l19 -31 -4 124 c-4 156 21 274 83 399
23 46 39 84 36 84 -4 0 -34 -14 -67 -30z"/>
<path d="M1604 1506 c-57 -18 -102 -54 -132 -106 l-27 -45 0 -220 0 -220 27
-47 c15 -25 44 -56 63 -68 l35 -22 2 -96 c1 -53 3 -106 4 -117 1 -11 2 -30 3
-43 1 -21 10 -15 89 50 48 41 119 100 158 131 l71 57 237 0 c216 0 240 2 275
20 49 24 108 93 121 139 5 20 10 122 10 227 0 185 -1 192 -26 242 -30 61 -74
98 -140 118 -64 19 -708 19 -770 0z m786 -88 c72 -49 75 -59 78 -266 3 -179 2
-189 -20 -231 -44 -85 -45 -86 -331 -89 l-251 -3 -106 -85 -105 -85 -3 83 -3
84 -34 13 c-49 17 -92 71 -100 124 -4 24 -5 118 -3 209 3 156 4 166 28 201 45
67 44 67 451 67 363 0 366 0 399 -22z"/>
<path d="M1690 1253 c-31 -12 -50 -37 -50 -68 0 -39 13 -51 77 -74 35 -12 49
-23 51 -39 3 -19 -1 -22 -33 -22 -20 0 -49 7 -65 15 -27 14 -29 14 -35 -6 -15
-48 113 -75 164 -36 41 33 30 98 -20 116 -16 6 -42 16 -59 22 -62 24 -23 67
43 48 44 -12 47 -12 47 10 0 29 -75 50 -120 34z"/>
<path d="M1870 1135 c0 -117 1 -125 20 -125 17 0 19 8 22 78 l3 77 35 -67 c19
-38 40 -68 47 -68 7 0 28 30 47 68 l35 67 1 -77 c0 -77 0 -78 25 -78 l26 0 -3
123 c-3 118 -4 122 -26 125 -19 3 -27 -7 -58 -72 -20 -42 -40 -78 -44 -81 -4
-2 -24 31 -43 75 -32 70 -40 80 -62 80 l-25 0 0 -125z"/>
<path d="M2240 1253 c-31 -12 -50 -37 -50 -68 0 -39 17 -55 79 -75 34 -11 46
-20 46 -35 0 -16 -8 -21 -38 -23 -22 -2 -48 3 -61 11 -20 14 -24 13 -34 -4
-10 -16 -8 -21 21 -35 48 -25 112 -23 142 6 46 44 25 98 -47 119 -69 21 -87
44 -46 60 13 4 38 4 57 -1 25 -7 36 -6 42 4 14 22 11 27 -28 37 -41 12 -60 13
-83 4z"/>
<path d="M1258 1073 c-3 -261 -4 -269 -27 -306 -29 -47 -86 -77 -146 -77 -103
0 -175 83 -175 203 0 44 8 46 40 12 37 -39 40 -30 12 38 -19 48 -26 85 -30
166 -4 94 -6 102 -18 79 -25 -47 -65 -202 -71 -273 -11 -130 35 -225 133 -275
98 -49 228 -23 294 60 54 69 60 106 60 385 l0 255 -34 0 -35 0 -3 -267z"/>
</g>
</svg>
